<svg width="571" height="36" viewBox="0 0 571 36" fill="none" xmlns="http://www.w3.org/2000/svg">
<g opacity="0.55">
<path opacity="0.55" d="M33.362 11.637C33.815 11.637 33.962 11.801 33.962 12.237V22.2H39.082C39.522 22.2 39.682 22.364 39.682 22.8V23.687C39.682 24.127 39.518 24.287 39.082 24.287H32.343C31.903 24.287 31.727 24.123 31.727 23.687V12.241C31.727 11.801 31.903 11.641 32.343 11.641L33.362 11.637Z" fill="#394149"/>
<path opacity="0.55" d="M44.156 16.027C44.156 13.121 45.993 11.372 49.188 11.372C52.383 11.372 54.22 13.121 54.22 16.027V19.902C54.22 22.808 52.371 24.557 49.188 24.557C46.005 24.557 44.156 22.807 44.156 19.901V16.027ZM52.107 16.027C52.107 14.392 51.088 13.511 49.251 13.511C47.414 13.511 46.408 14.404 46.408 16.027V19.927C46.408 21.575 47.414 22.443 49.251 22.443C51.088 22.443 52.107 21.537 52.107 19.927V16.027Z" fill="#394149"/>
<path opacity="0.55" d="M69.204 17.36C69.695 17.36 69.804 17.524 69.804 17.96V20.35C69.8182 20.9132 69.7061 21.4725 69.476 21.9868C69.2458 22.5011 68.9034 22.9573 68.474 23.322C67.4069 24.1719 66.0613 24.5937 64.7 24.505C61.442 24.505 59.668 22.756 59.668 19.85V15.95C59.668 13.082 61.505 11.321 64.7 11.321C67.216 11.321 68.851 12.315 69.543 14.302C69.5817 14.3766 69.6024 14.4593 69.6036 14.5434C69.6048 14.6275 69.5863 14.7107 69.5497 14.7864C69.5132 14.8621 69.4594 14.9282 69.3928 14.9795C69.3262 15.0308 69.2485 15.0659 69.166 15.082L68.185 15.422C67.757 15.573 67.585 15.485 67.43 15.045C67.2214 14.5078 66.8398 14.0553 66.3454 13.7592C65.851 13.4631 65.272 13.3402 64.7 13.41C62.851 13.41 61.844 14.303 61.844 15.926V19.926C61.844 21.574 62.863 22.442 64.7 22.442C66.537 22.442 67.669 21.599 67.669 20.366V19.435H64.938C64.485 19.435 64.322 19.259 64.322 18.819V17.964C64.322 17.524 64.486 17.364 64.938 17.364L69.204 17.36Z" fill="#394149"/>
<path opacity="0.55" d="M75.003 16.027C75.003 13.121 76.84 11.372 80.035 11.372C83.23 11.372 85.067 13.121 85.067 16.027V19.902C85.067 22.808 83.218 24.557 80.035 24.557C76.852 24.557 75.003 22.808 75.003 19.902V16.027ZM82.941 16.027C82.941 14.392 81.922 13.511 80.098 13.511C78.274 13.511 77.242 14.404 77.242 16.027V19.927C77.242 21.575 78.261 22.443 80.098 22.443C81.935 22.443 82.941 21.537 82.941 19.927V16.027Z" fill="#394149"/>
<path opacity="0.55" d="M90.992 12.002C90.992 11.725 91.08 11.637 91.357 11.637H91.936C92.213 11.637 92.276 11.725 92.276 12.002V23.928C92.276 24.205 92.276 24.293 91.936 24.293H91.357C91.08 24.293 90.992 24.205 90.992 23.928V12.002Z" fill="#394149"/>
<path opacity="0.55" d="M103.739 11.637C104.787 11.637 105.791 12.0532 106.532 12.794C107.273 13.5347 107.689 14.5394 107.689 15.587C107.689 16.6346 107.273 17.6393 106.532 18.3801C105.791 19.1209 104.787 19.537 103.739 19.537H99.962V23.927C99.962 24.204 99.899 24.292 99.635 24.292H99.039C98.775 24.292 98.674 24.204 98.674 23.927V12.002C98.674 11.725 98.774 11.637 99.039 11.637H103.739ZM103.623 18.287C104.35 18.287 105.048 17.9981 105.562 17.4838C106.077 16.9694 106.366 16.2719 106.366 15.5445C106.366 14.8172 106.077 14.1196 105.562 13.6053C105.048 13.091 104.35 12.802 103.623 12.802H99.849V18.287H103.623Z" fill="#394149"/>
<path opacity="0.55" d="M117.511 11.385C118.482 11.2777 119.462 11.4865 120.305 11.9805C121.148 12.4745 121.81 13.2273 122.191 14.127C122.291 14.327 122.191 14.492 121.991 14.592L121.437 14.844C121.211 14.932 121.122 14.919 120.984 14.68C120.699 14.0121 120.209 13.4523 119.584 13.0814C118.96 12.7105 118.234 12.5479 117.511 12.617C115.385 12.617 114.228 13.46 114.228 14.969C114.216 15.4307 114.371 15.8812 114.665 16.2372C114.959 16.5933 115.372 16.8308 115.828 16.906C116.505 17.1258 117.206 17.2602 117.916 17.306C118.776 17.3519 119.624 17.5258 120.432 17.822C121.052 18.0177 121.585 18.421 121.943 18.9639C122.3 19.5068 122.46 20.1563 122.395 20.803C122.395 23.155 120.684 24.577 117.539 24.577C116.508 24.6962 115.468 24.4587 114.59 23.9041C113.713 23.3496 113.052 22.5114 112.718 21.529C112.696 21.4842 112.684 21.435 112.683 21.385C112.682 21.335 112.692 21.2854 112.713 21.2397C112.733 21.1941 112.763 21.1535 112.801 21.1209C112.839 21.0883 112.884 21.0644 112.932 21.051L113.486 20.851C113.53 20.8333 113.576 20.8247 113.624 20.826C113.671 20.8273 113.717 20.8383 113.76 20.8585C113.802 20.8786 113.84 20.9073 113.871 20.9429C113.902 20.9785 113.925 21.02 113.939 21.065C114.221 21.7758 114.722 22.3784 115.369 22.7854C116.016 23.1925 116.776 23.3829 117.539 23.329C119.917 23.329 121.087 22.499 121.087 20.813C121.109 20.3699 120.973 19.9332 120.704 19.5808C120.434 19.2283 120.048 18.9828 119.615 18.888C118.964 18.694 118.293 18.5759 117.615 18.536L116.256 18.36C115.831 18.2697 115.411 18.1562 114.998 18.02C114.59 17.897 114.21 17.6963 113.878 17.429C113.545 17.1271 113.282 16.7557 113.108 16.3409C112.934 15.9262 112.854 15.4783 112.872 15.029C112.957 12.819 114.605 11.385 117.511 11.385Z" fill="#394149"/>
<path opacity="0.55" d="M129.173 19.987C129.236 20.8696 129.632 21.6954 130.279 22.2982C130.927 22.901 131.779 23.2362 132.664 23.2362C133.549 23.2362 134.401 22.901 135.049 22.2982C135.696 21.6954 136.092 20.8696 136.155 19.987V12.002C136.155 11.725 136.243 11.637 136.52 11.637H137.099C137.376 11.637 137.464 11.725 137.464 12.002V19.978C137.464 22.834 135.778 24.557 132.671 24.557C129.564 24.557 127.878 22.834 127.878 19.978V12.002C127.878 11.725 127.966 11.637 128.23 11.637H128.821C129.085 11.637 129.173 11.725 129.173 12.002V19.987Z" fill="#394149"/>
<path opacity="0.55" d="M154.824 11.636C155.101 11.636 155.189 11.724 155.189 12.001V23.927C155.189 24.204 155.101 24.292 154.824 24.292H154.296C154.032 24.292 153.944 24.204 153.944 23.927V16.669C153.944 15.6127 154.016 14.5577 154.158 13.511H154.083C153.69 14.4679 153.232 15.3968 152.712 16.291L150.012 21.059C149.979 21.1417 149.922 21.2124 149.847 21.2618C149.773 21.3113 149.686 21.3371 149.597 21.336H149.245C149.154 21.3367 149.066 21.3108 148.99 21.2616C148.913 21.2123 148.854 21.1419 148.817 21.059L146.075 16.241C145.588 15.3595 145.168 14.4429 144.817 13.499H144.742C144.87 14.5552 144.937 15.618 144.942 16.682V23.928C144.942 24.205 144.854 24.293 144.577 24.293H144.076C143.799 24.293 143.711 24.205 143.711 23.928V12.001C143.711 11.724 143.799 11.636 144.076 11.636H144.529C144.632 11.6265 144.735 11.6493 144.825 11.701C144.914 11.7528 144.986 11.831 145.029 11.925L149.429 19.75L153.807 12.001C153.945 11.737 154.021 11.701 154.298 11.701L154.824 11.636Z" fill="#394149"/>
<path opacity="0.55" d="M10.982 22.38V31.48C10.9726 31.8223 10.8299 32.1475 10.5844 32.3863C10.339 32.6251 10.01 32.7587 9.6675 32.7587C9.32502 32.7587 8.99605 32.6251 8.75056 32.3863C8.50508 32.1475 8.36244 31.8223 8.353 31.48V22.393C8.71898 22.6604 9.15787 22.8097 9.611 22.821C10.1048 22.8351 10.5886 22.6799 10.982 22.381V22.38ZM22.182 19.751C21.8484 19.751 21.5284 19.8835 21.2925 20.1195C21.0565 20.3554 20.924 20.6754 20.924 21.009V22.594C20.9334 22.9363 21.0761 23.2615 21.3216 23.5003C21.5671 23.7391 21.896 23.8727 22.2385 23.8727C22.581 23.8727 22.9099 23.7391 23.1554 23.5003C23.4009 23.2615 23.5436 22.9363 23.553 22.594V21.072C23.5628 20.8916 23.5336 20.7113 23.4675 20.5432C23.4014 20.3751 23.2998 20.2232 23.1697 20.0978C23.0396 19.9725 22.8841 19.8766 22.7137 19.8168C22.5432 19.757 22.3619 19.7345 22.182 19.751ZM5.5 25.827C5.04671 25.8141 4.60776 25.6653 4.24 25.4V34.52C4.24 34.6935 4.27417 34.8653 4.34056 35.0255C4.40694 35.1858 4.50425 35.3314 4.62691 35.4541C4.74958 35.5768 4.8952 35.6741 5.05548 35.7404C5.21575 35.8068 5.38752 35.841 5.561 35.841C5.73448 35.841 5.90625 35.8068 6.06652 35.7404C6.2268 35.6741 6.37242 35.5768 6.49509 35.4541C6.61775 35.3314 6.71506 35.1858 6.78144 35.0255C6.84783 34.8653 6.882 34.6935 6.882 34.52V25.462C6.47123 25.7278 5.98641 25.8556 5.498 25.827H5.5ZM18.08 17.021C17.9096 17.0125 17.7392 17.0387 17.5792 17.0981C17.4192 17.1574 17.273 17.2487 17.1494 17.3664C17.0259 17.4841 16.9275 17.6257 16.8604 17.7826C16.7933 17.9395 16.7588 18.1084 16.759 18.279V25.286C16.759 25.6364 16.8982 25.9724 17.1459 26.2201C17.3936 26.4678 17.7296 26.607 18.08 26.607C18.4304 26.607 18.7664 26.4678 19.0141 26.2201C19.2618 25.9724 19.401 25.6364 19.401 25.286V18.367C19.411 18.1854 19.3816 18.0038 19.3147 17.8347C19.2478 17.6656 19.1451 17.513 19.0135 17.3875C18.882 17.2619 18.7248 17.1664 18.5527 17.1074C18.3807 17.0485 18.1979 17.0275 18.017 17.046L18.08 17.021ZM13.9 19.713C13.4261 19.7098 12.9647 19.5604 12.579 19.285V28.431C12.579 28.7814 12.7182 29.1174 12.9659 29.3651C13.2136 29.6128 13.5496 29.752 13.9 29.752C14.2504 29.752 14.5864 29.6128 14.8341 29.3651C15.0818 29.1174 15.221 28.7814 15.221 28.431V19.3C14.8218 19.5972 14.3345 19.7521 13.837 19.74L13.9 19.713ZM2.642 26.72V1.17C2.63858 0.858507 2.51243 0.560936 2.29094 0.341884C2.06946 0.122832 1.77051 -1.88072e-05 1.459 2.15957e-09H1.183C0.871488 -1.88072e-05 0.572541 0.122832 0.351056 0.341884C0.12957 0.560936 0.0034232 0.858507 0 1.17V26.72C0.000530028 27.0333 0.125433 27.3336 0.34726 27.5549C0.569087 27.7761 0.869687 27.9003 1.183 27.9H1.46C1.77314 27.9 2.07348 27.7757 2.29509 27.5545C2.5167 27.3333 2.64147 27.0331 2.642 26.72ZM5.636 24.858H5.359C5.20361 24.8581 5.04972 24.8276 4.90613 24.7682C4.76254 24.7088 4.63208 24.6217 4.5222 24.5118C4.41232 24.4019 4.32519 24.2715 4.26578 24.1279C4.20638 23.9843 4.17587 23.8304 4.176 23.675V4.214C4.17942 3.90251 4.30557 3.60494 4.52706 3.38588C4.74854 3.16683 5.04749 3.04398 5.359 3.044H5.636C5.94751 3.04398 6.24646 3.16683 6.46794 3.38588C6.68943 3.60494 6.81558 3.90251 6.819 4.214V23.7C6.81913 23.8554 6.78862 24.0093 6.72922 24.1529C6.66981 24.2965 6.58268 24.4269 6.4728 24.5368C6.36292 24.6467 6.23246 24.7338 6.08887 24.7932C5.94528 24.8526 5.79139 24.8831 5.636 24.883V24.858ZM9.8 21.864H9.511C9.2007 21.864 8.9031 21.7407 8.68369 21.5213C8.46427 21.3019 8.341 21.0043 8.341 20.694V7.234C8.33928 7.07926 8.36827 6.92572 8.4263 6.78227C8.48433 6.63881 8.57024 6.50829 8.67905 6.39827C8.78787 6.28824 8.91743 6.2009 9.06024 6.14129C9.20304 6.08168 9.35625 6.05099 9.511 6.051H9.8C10.1115 6.05442 10.4091 6.18057 10.6281 6.40206C10.8472 6.62354 10.97 6.92249 10.97 7.234V20.694C10.97 21.0043 10.8467 21.3019 10.6273 21.5213C10.4079 21.7407 10.1103 21.864 9.8 21.864ZM13.964 18.782H13.7C13.3885 18.782 13.0895 18.6592 12.8681 18.4401C12.6466 18.2211 12.5204 17.9235 12.517 17.612V10.366C12.5066 10.2044 12.5295 10.0424 12.5843 9.89006C12.6391 9.73769 12.7246 9.59821 12.8355 9.48026C12.9464 9.3623 13.0804 9.2684 13.2291 9.20436C13.3778 9.14033 13.5381 9.10753 13.7 9.108H13.977C14.1324 9.10787 14.2863 9.13838 14.4299 9.19778C14.5735 9.25719 14.7039 9.34432 14.8138 9.4542C14.9237 9.56408 15.0108 9.69454 15.0702 9.83813C15.1296 9.98172 15.1601 10.1356 15.16 10.291V17.591C15.1623 17.7478 15.1333 17.9034 15.0749 18.0489C15.0164 18.1944 14.9297 18.3269 14.8196 18.4385C14.7095 18.5502 14.5783 18.6388 14.4337 18.6994C14.289 18.7599 14.1338 18.791 13.977 18.791L13.964 18.782ZM18.141 16.082H17.864C17.7086 16.0821 17.5547 16.0516 17.4111 15.9922C17.2675 15.9328 17.1371 15.8457 17.0272 15.7358C16.9173 15.6259 16.8302 15.4955 16.7708 15.3519C16.7114 15.2083 16.6809 15.0544 16.681 14.899V13.02C16.6844 12.7085 16.8106 12.4109 17.0321 12.1919C17.2535 11.9728 17.5525 11.85 17.864 11.85H18.141C18.4525 11.85 18.7515 11.9728 18.9729 12.1919C19.1944 12.4109 19.3206 12.7085 19.324 13.02V14.894C19.324 15.2055 19.2012 15.5045 18.9821 15.7259C18.7631 15.9474 18.4655 16.0736 18.154 16.077L18.141 16.082Z" fill="#394149"/>
</g>
<g opacity="0.55">
<path opacity="0.55" d="M261.454 27.227C260.707 27.2685 259.967 27.0572 259.354 26.627C259.098 26.4374 258.892 26.1882 258.754 25.9011C258.616 25.6139 258.549 25.2975 258.561 24.979V13.313C258.555 13.2636 258.56 13.2134 258.576 13.1664C258.592 13.1193 258.619 13.0765 258.654 13.0413C258.69 13.0061 258.732 12.9794 258.779 12.9632C258.826 12.947 258.877 12.9418 258.926 12.948H261.039C261.278 12.948 261.391 13.074 261.391 13.313V24.069C261.391 24.547 261.605 24.786 262.045 24.786C262.232 24.7938 262.419 24.7725 262.599 24.723C262.851 24.723 262.989 24.798 262.999 25.023L263.19 26.593C263.199 26.6387 263.198 26.6858 263.188 26.7312C263.177 26.7766 263.157 26.8191 263.129 26.8561C263.1 26.893 263.064 26.9234 263.023 26.9453C262.982 26.9672 262.937 26.9801 262.89 26.983C262.427 27.1379 261.942 27.2202 261.454 27.227Z" fill="#394149"/>
<path opacity="0.55" d="M273.342 25.881C272.28 26.7584 270.946 27.2384 269.568 27.2384C268.19 27.2384 266.856 26.7584 265.794 25.881C264.861 24.9387 264.337 23.6659 264.337 22.3395C264.337 21.0131 264.861 19.7403 265.794 18.798C266.858 17.925 268.192 17.4479 269.568 17.4479C270.944 17.4479 272.278 17.925 273.342 18.798C274.254 19.7489 274.763 21.0155 274.763 22.333C274.763 23.6505 274.254 24.9171 273.342 25.868V25.881ZM267.782 24.217C268.275 24.6639 268.917 24.9115 269.582 24.9115C270.247 24.9115 270.889 24.6639 271.382 24.217C271.828 23.7041 272.074 23.047 272.074 22.367C272.074 21.687 271.828 21.0299 271.382 20.517C270.889 20.0701 270.247 19.8225 269.582 19.8225C268.917 19.8225 268.275 20.0701 267.782 20.517C267.336 21.0299 267.09 21.687 267.09 22.367C267.09 23.047 267.336 23.7041 267.782 24.217Z" fill="#394149"/>
<path opacity="0.55" d="M286.4 17.767C286.639 17.767 286.752 17.893 286.752 18.132V27.152C286.774 27.7611 286.659 28.3673 286.417 28.9266C286.175 29.4858 285.811 29.9841 285.352 30.385C284.335 31.2525 283.027 31.702 281.691 31.643C280.485 31.6853 279.295 31.3557 278.282 30.699C277.85 30.415 277.48 30.0451 277.197 29.6123C276.913 29.1795 276.722 28.693 276.634 28.183C276.634 27.931 276.634 27.818 276.974 27.818H279.087C279.177 27.8212 279.264 27.8501 279.337 27.9014C279.411 27.9526 279.468 28.024 279.502 28.107C279.639 28.489 279.912 28.807 280.269 29C280.704 29.2246 281.188 29.337 281.678 29.327C281.973 29.3432 282.269 29.3003 282.548 29.2009C282.826 29.1015 283.083 28.9475 283.301 28.748C283.501 28.5394 283.656 28.2924 283.758 28.022C283.859 27.7517 283.905 27.4636 283.892 27.175V26.382C283.135 26.9388 282.214 27.2267 281.275 27.2C280.618 27.2241 279.963 27.115 279.349 26.8794C278.735 26.6438 278.174 26.2865 277.702 25.829C276.795 24.8907 276.288 23.6367 276.288 22.3315C276.288 21.0264 276.795 19.7724 277.702 18.834C278.177 18.3805 278.737 18.0267 279.351 17.7933C279.965 17.5599 280.619 17.4517 281.275 17.475C282.241 17.4494 283.187 17.7558 283.955 18.343V18.143C283.949 18.0948 283.954 18.0459 283.97 17.9999C283.985 17.9539 284.011 17.9119 284.044 17.8769C284.078 17.842 284.119 17.8149 284.165 17.7978C284.21 17.7807 284.259 17.774 284.307 17.778L286.4 17.767ZM281.519 24.967C281.843 24.977 282.165 24.9158 282.463 24.7876C282.761 24.6593 283.027 24.4673 283.242 24.225C283.66 23.6849 283.887 23.0212 283.887 22.338C283.887 21.6549 283.66 20.9912 283.242 20.451C283.027 20.2118 282.763 20.0224 282.467 19.8963C282.172 19.7702 281.852 19.7104 281.531 19.721C281.203 19.7107 280.877 19.7717 280.575 19.8998C280.273 20.0279 280.002 20.2201 279.782 20.463C279.319 20.9798 279.075 21.6567 279.103 22.35C279.08 23.0355 279.317 23.7042 279.767 24.222C279.988 24.4644 280.259 24.6561 280.56 24.7842C280.862 24.9122 281.188 24.9736 281.516 24.964L281.519 24.967Z" fill="#394149"/>
<path opacity="0.55" d="M297.609 25.88C296.545 26.753 295.211 27.2301 293.835 27.2301C292.459 27.2301 291.125 26.753 290.061 25.88C289.148 24.9269 288.639 23.6582 288.639 22.3385C288.639 21.0188 289.148 19.7501 290.061 18.797C291.126 17.9264 292.459 17.4507 293.835 17.4507C295.211 17.4507 296.544 17.9264 297.609 18.797C298.521 19.7479 299.03 21.0145 299.03 22.332C299.03 23.6495 298.521 24.9161 297.609 25.867V25.88ZM292.036 24.217C292.526 24.6741 293.171 24.9283 293.842 24.9283C294.512 24.9283 295.157 24.6741 295.647 24.217C296.086 23.7006 296.327 23.0448 296.327 22.367C296.327 21.6892 296.086 21.0334 295.647 20.517C295.157 20.0599 294.512 19.8057 293.842 19.8057C293.171 19.8057 292.526 20.0599 292.036 20.517C291.597 21.0334 291.356 21.6892 291.356 22.367C291.356 23.0448 291.597 23.7006 292.036 24.217Z" fill="#394149"/>
<path opacity="0.55" d="M303.571 15.628C303.239 15.9184 302.812 16.0784 302.371 16.0784C301.93 16.0784 301.503 15.9184 301.171 15.628C301.02 15.4858 300.9 15.3142 300.818 15.1238C300.736 14.9335 300.694 14.7283 300.694 14.521C300.694 14.3137 300.736 14.1086 300.818 13.9182C300.9 13.7279 301.02 13.5563 301.171 13.414C301.507 13.131 301.932 12.9758 302.371 12.9758C302.81 12.9758 303.235 13.131 303.571 13.414C303.722 13.5563 303.842 13.7279 303.924 13.9182C304.006 14.1086 304.048 14.3137 304.048 14.521C304.048 14.7283 304.006 14.9335 303.924 15.1238C303.842 15.3142 303.722 15.4858 303.571 15.628ZM303.835 27.228C303.088 27.2657 302.349 27.0547 301.735 26.628C301.483 26.4355 301.281 26.1854 301.145 25.8987C301.009 25.612 300.944 25.297 300.955 24.98V18.131C300.949 18.0816 300.954 18.0315 300.97 17.9844C300.986 17.9373 301.013 17.8945 301.048 17.8593C301.083 17.8241 301.126 17.7974 301.173 17.7812C301.22 17.7651 301.271 17.7599 301.32 17.766H303.433C303.672 17.766 303.785 17.892 303.785 18.131V24.069C303.785 24.547 303.999 24.786 304.427 24.786C304.618 24.7929 304.808 24.7717 304.993 24.723C305.245 24.723 305.383 24.798 305.393 25.023L305.582 26.596C305.591 26.6417 305.59 26.6888 305.58 26.7342C305.569 26.7796 305.549 26.8221 305.52 26.8591C305.492 26.896 305.456 26.9264 305.415 26.9483C305.374 26.9702 305.329 26.9831 305.282 26.986C304.815 27.1405 304.328 27.2218 303.836 27.227L303.835 27.228Z" fill="#394149"/>
<path opacity="0.55" d="M313.36 17.465C314.021 17.4387 314.68 17.5454 315.298 17.7789C315.917 18.0123 316.482 18.3678 316.96 18.824C317.85 19.7788 318.344 21.0352 318.344 22.34C318.344 23.6449 317.85 24.9013 316.96 25.856C316.484 26.3162 315.919 26.675 315.301 26.9106C314.682 27.1463 314.022 27.2539 313.36 27.227C312.418 27.2479 311.495 26.9607 310.731 26.409V30.95C310.731 31.189 310.605 31.302 310.366 31.302H308.252C308.204 31.3115 308.154 31.3089 308.107 31.2945C308.06 31.2802 308.017 31.2545 307.982 31.2197C307.948 31.185 307.922 31.1422 307.908 31.0952C307.893 31.0481 307.891 30.9983 307.9 30.95V20.635C307.915 20.5342 307.906 20.4312 307.874 20.3345C307.842 20.2377 307.788 20.1497 307.715 20.0777C307.643 20.0056 307.555 19.9513 307.459 19.9193C307.362 19.8872 307.259 19.8782 307.158 19.893H306.743C306.466 19.893 306.328 19.793 306.328 19.593V18.106C306.321 18.0142 306.346 17.9227 306.399 17.8471C306.451 17.7714 306.528 17.7163 306.617 17.691C307.052 17.533 307.513 17.4564 307.976 17.465C308.437 17.4239 308.9 17.5211 309.305 17.7443C309.711 17.9675 310.04 18.3065 310.252 18.718C310.657 18.3082 311.142 17.9853 311.676 17.769C312.21 17.5527 312.783 17.4475 313.359 17.46L313.36 17.465ZM311.397 24.218C311.621 24.4528 311.891 24.6397 312.189 24.7673C312.487 24.895 312.809 24.9608 313.133 24.9608C313.458 24.9608 313.779 24.895 314.077 24.7673C314.376 24.6397 314.645 24.4528 314.869 24.218C315.342 23.691 315.59 23.0003 315.561 22.293C315.594 21.5851 315.345 20.893 314.869 20.368C314.645 20.1333 314.376 19.9464 314.077 19.8187C313.779 19.6911 313.458 19.6252 313.133 19.6252C312.809 19.6252 312.487 19.6911 312.189 19.8187C311.891 19.9464 311.621 20.1333 311.397 20.368C310.939 20.9022 310.701 21.5901 310.73 22.293C310.705 22.9954 310.942 23.682 311.397 24.218Z" fill="#394149"/>
<path opacity="0.55" d="M324.279 27.227C323.15 27.2735 322.03 27.0033 321.046 26.447C320.651 26.2092 320.315 25.8855 320.062 25.5C319.81 25.1144 319.647 24.677 319.587 24.22C319.587 23.968 319.675 23.843 319.952 23.843H321.801C321.889 23.8465 321.974 23.8742 322.048 23.9231C322.121 23.972 322.179 24.0401 322.216 24.12C322.48 24.799 323.172 25.139 324.279 25.139C324.665 25.1569 325.05 25.0793 325.399 24.913C325.519 24.8588 325.623 24.7728 325.698 24.6643C325.774 24.5558 325.818 24.4288 325.827 24.297C325.827 23.97 325.627 23.743 325.227 23.597C324.75 23.4379 324.256 23.3323 323.755 23.282C323.162 23.2147 322.574 23.1095 321.994 22.967C321.43 22.8394 320.917 22.5458 320.522 22.124C320.289 21.8374 320.118 21.506 320.018 21.1503C319.919 20.7946 319.894 20.4222 319.945 20.0564C319.995 19.6906 320.121 19.3392 320.313 19.0239C320.506 18.7087 320.761 18.4364 321.063 18.224C321.97 17.6466 323.033 17.3653 324.107 17.419C325.147 17.3838 326.175 17.6409 327.076 18.161C327.439 18.3666 327.752 18.6506 327.991 18.9923C328.23 19.3339 328.391 19.7246 328.46 20.136C328.46 20.3874 328.347 20.513 328.12 20.513H326.254C326.176 20.5176 326.098 20.4985 326.031 20.4582C325.963 20.4179 325.91 20.3582 325.877 20.287C325.753 19.989 325.519 19.7502 325.223 19.62C324.89 19.4455 324.517 19.3587 324.141 19.368C323.772 19.3482 323.405 19.4218 323.072 19.582C322.955 19.6277 322.855 19.7072 322.783 19.8104C322.712 19.9135 322.673 20.0356 322.672 20.161C322.68 20.3325 322.742 20.497 322.85 20.6305C322.958 20.764 323.106 20.8595 323.272 20.903C323.756 21.0852 324.259 21.2117 324.772 21.28C325.36 21.3575 325.944 21.4666 326.521 21.607C327.085 21.7347 327.598 22.0283 327.993 22.45C328.204 22.6823 328.368 22.9542 328.473 23.2499C328.579 23.5456 328.625 23.8594 328.609 24.173C328.62 24.6079 328.518 25.0382 328.313 25.4218C328.108 25.8055 327.807 26.1294 327.439 26.362C326.498 26.9647 325.396 27.2664 324.279 27.227Z" fill="#394149"/>
<path opacity="0.55" d="M341.904 26.598C341.911 26.6426 341.91 26.6881 341.899 26.732C341.888 26.7762 341.868 26.8177 341.841 26.854C341.814 26.8906 341.78 26.9212 341.741 26.944C341.702 26.967 341.659 26.982 341.614 26.988C341.155 27.1381 340.675 27.2186 340.192 27.227C339.714 27.2766 339.231 27.2019 338.79 27.0102C338.35 26.8186 337.966 26.5165 337.676 26.133C336.787 26.8969 335.638 27.2887 334.468 27.227C333.925 27.2518 333.383 27.1627 332.876 26.9655C332.369 26.7683 331.91 26.4674 331.526 26.082C331.145 25.678 330.849 25.2013 330.657 24.6803C330.464 24.1593 330.379 23.6048 330.406 23.05V18.132C330.406 17.893 330.519 17.767 330.758 17.767H332.871C333.11 17.767 333.223 17.893 333.223 18.132V22.673C333.2 23.2389 333.394 23.7921 333.765 24.22C333.95 24.4162 334.175 24.5705 334.424 24.6725C334.674 24.7744 334.943 24.8217 335.212 24.811C335.488 24.823 335.763 24.7803 336.023 24.6852C336.282 24.5901 336.519 24.4446 336.722 24.257C336.914 24.059 337.063 23.8237 337.161 23.5657C337.258 23.3077 337.301 23.0325 337.288 22.757V18.132C337.288 17.893 337.401 17.767 337.64 17.767H339.779C340.018 17.767 340.131 17.893 340.131 18.132V24.057C340.131 24.548 340.345 24.787 340.76 24.787C340.955 24.7946 341.15 24.7734 341.339 24.724C341.387 24.7106 341.437 24.7081 341.485 24.7168C341.534 24.7254 341.58 24.745 341.62 24.774C341.661 24.8027 341.695 24.8403 341.72 24.884C341.743 24.9278 341.756 24.9759 341.758 25.025L341.904 26.598Z" fill="#394149"/>
<path opacity="0.55" d="M361.889 26.598C361.899 26.6435 361.899 26.6906 361.889 26.736C361.879 26.7816 361.86 26.8245 361.832 26.862C361.806 26.899 361.772 26.9297 361.732 26.952C361.691 26.9742 361.646 26.9868 361.6 26.989C361.133 27.1411 360.645 27.2217 360.153 27.228C359.406 27.2676 358.667 27.0564 358.053 26.628C357.788 26.4438 357.572 26.197 357.425 25.9096C357.278 25.6221 357.204 25.3028 357.21 24.98V22.018C357.237 21.4541 357.048 20.9011 356.682 20.471C356.506 20.2744 356.288 20.1193 356.044 20.0171C355.8 19.9149 355.537 19.8681 355.273 19.88C355.035 19.871 354.798 19.9162 354.58 20.0121C354.362 20.1081 354.169 20.2524 354.015 20.434C353.683 20.8554 353.513 21.382 353.537 21.918V26.56C353.537 26.799 353.424 26.925 353.185 26.925H351.059C351.01 26.9311 350.959 26.9259 350.912 26.9098C350.865 26.8937 350.822 26.8671 350.787 26.832C350.752 26.7968 350.725 26.7541 350.709 26.707C350.693 26.6598 350.688 26.6095 350.694 26.56V22.018C350.721 21.4602 350.547 20.9111 350.203 20.471C350.05 20.2863 349.857 20.1376 349.64 20.0355C349.422 19.9333 349.185 19.8803 348.945 19.88C348.688 19.8698 348.432 19.9138 348.194 20.0093C347.955 20.1047 347.74 20.2495 347.561 20.434C347.201 20.842 347.016 21.3749 347.045 21.918V26.56C347.052 26.6095 347.046 26.6598 347.03 26.707C347.014 26.7532 346.987 26.7951 346.953 26.8297C346.918 26.8643 346.876 26.8907 346.83 26.907C346.783 26.923 346.733 26.9281 346.683 26.922H344.632C344.393 26.922 344.28 26.796 344.28 26.557V20.635C344.295 20.534 344.286 20.431 344.254 20.3341C344.222 20.2372 344.167 20.1492 344.095 20.077C344.023 20.0049 343.935 19.9506 343.838 19.9185C343.742 19.8864 343.639 19.8773 343.538 19.892H343.123C342.846 19.892 342.708 19.792 342.708 19.592V18.106C342.701 18.0141 342.726 17.9227 342.779 17.8471C342.831 17.7714 342.908 17.7163 342.997 17.691C343.432 17.533 343.893 17.4564 344.356 17.465C344.8 17.427 345.246 17.5155 345.643 17.7203C346.039 17.925 346.369 18.2376 346.595 18.622C347.02 18.2192 347.524 17.9086 348.074 17.7095C348.625 17.5104 349.211 17.4271 349.795 17.465C350.362 17.4372 350.927 17.5435 351.445 17.7751C351.963 18.0067 352.419 18.3571 352.776 18.798C353.193 18.3451 353.705 17.9905 354.276 17.76C354.847 17.5295 355.462 17.4287 356.076 17.465C356.625 17.4394 357.174 17.528 357.687 17.7251C358.2 17.9221 358.667 18.2235 359.058 18.61C359.44 19.0134 359.736 19.4901 359.929 20.0112C360.121 20.5324 360.206 21.0872 360.178 21.642V24.07C360.178 24.548 360.392 24.787 360.794 24.787C360.989 24.7961 361.184 24.7749 361.373 24.724C361.634 24.724 361.772 24.824 361.788 25.024L361.889 26.598Z" fill="#394149"/>
<path opacity="0.55" d="M214.379 16.131C215.307 12.4006 217.457 9.08801 220.485 6.72059C223.514 4.35317 227.247 3.06708 231.092 3.06708C234.936 3.06708 238.669 4.35317 241.698 6.72059C244.726 9.08801 246.876 12.4006 247.804 16.131H246.294C243.748 16.0939 241.254 16.8548 239.163 18.307C239.042 18.3944 238.917 18.4742 238.786 18.546H238.61C238.48 18.4742 238.354 18.3944 238.233 18.307C236.123 16.8879 233.637 16.13 231.094 16.13C228.551 16.13 226.065 16.8879 223.955 18.307C223.834 18.3944 223.709 18.4742 223.578 18.546H223.402C223.272 18.4742 223.146 18.3944 223.025 18.307C220.933 16.8544 218.439 16.0934 215.892 16.131H214.379ZM243.579 24.019C244.354 23.4156 245.314 23.1 246.296 23.126H248.321V19.087H246.295C244.566 19.0662 242.876 19.6046 241.477 20.622C240.69 21.2024 239.738 21.5156 238.76 21.5156C237.782 21.5156 236.829 21.2024 236.042 20.622C234.608 19.6235 232.902 19.0882 231.155 19.0882C229.407 19.0882 227.701 19.6235 226.267 20.622C225.48 21.2024 224.528 21.5156 223.55 21.5156C222.572 21.5156 221.619 21.2024 220.832 20.622C219.416 19.5915 217.702 19.0525 215.951 19.087H213.863V23.125H215.888C216.87 23.099 217.83 23.4146 218.605 24.018C220.037 25.017 221.74 25.5527 223.486 25.5527C225.232 25.5527 226.935 25.017 228.367 24.018C229.143 23.4165 230.103 23.1011 231.084 23.125C232.066 23.0968 233.027 23.4127 233.801 24.018C235.235 25.0165 236.941 25.5518 238.689 25.5518C240.436 25.5518 242.142 25.0165 243.576 24.018L243.579 24.019ZM243.579 31.24C244.354 30.6366 245.314 30.321 246.296 30.347H248.321V26.308H246.295C244.566 26.2872 242.876 26.8256 241.477 27.843C240.69 28.4234 239.738 28.7366 238.76 28.7366C237.782 28.7366 236.829 28.4234 236.042 27.843C234.608 26.8446 232.902 26.3094 231.155 26.3094C229.407 26.3094 227.701 26.8446 226.267 27.843C225.48 28.4234 224.528 28.7366 223.55 28.7366C222.572 28.7366 221.619 28.4234 220.832 27.843C219.416 26.8126 217.702 26.2735 215.951 26.308H213.863V30.347H215.888C216.87 30.321 217.83 30.6366 218.605 31.24C220.037 32.239 221.74 32.7747 223.486 32.7747C225.232 32.7747 226.935 32.239 228.367 31.24C229.143 30.6385 230.103 30.3231 231.084 30.347C232.066 30.3188 233.027 30.6347 233.801 31.24C235.235 32.2385 236.941 32.7738 238.689 32.7738C240.436 32.7738 242.142 32.2385 243.576 31.24H243.579Z" fill="#394149"/>
</g>
<g opacity="0.55">
<path opacity="0.55" d="M463.851 11.334H467.625V26.594H463.851V11.334ZM469.122 20.834C469.122 17.06 471.437 14.808 475.01 14.808C478.583 14.808 480.898 17.06 480.898 20.834C480.898 24.608 478.634 26.872 475.01 26.872C471.386 26.872 469.122 24.669 469.122 20.833V20.834ZM477.11 20.834C477.11 18.758 476.292 17.534 475.01 17.534C473.728 17.534 472.922 18.792 472.922 20.834C472.922 22.876 473.715 24.105 475.01 24.105C476.305 24.105 477.11 22.948 477.11 20.847V20.834ZM482.318 27.334H485.941C486.113 27.718 486.405 28.036 486.772 28.2405C487.14 28.4451 487.564 28.5253 487.981 28.469C489.415 28.469 490.17 27.689 490.17 26.557V24.443H490.095C489.794 25.0907 489.306 25.6333 488.694 26.0011C488.082 26.3688 487.374 26.5447 486.661 26.506C483.906 26.506 482.082 24.406 482.082 20.795C482.082 17.184 483.818 14.907 486.712 14.907C487.447 14.8788 488.173 15.0756 488.793 15.4713C489.413 15.867 489.897 16.4426 490.181 17.121V15.021H493.955V26.468C493.955 29.223 491.527 30.934 487.942 30.934C484.608 30.934 482.533 29.434 482.319 27.349L482.318 27.334ZM490.181 20.82C490.181 18.983 489.338 17.826 488.005 17.826C486.672 17.826 485.854 18.971 485.854 20.82C485.854 22.669 486.659 23.713 488.005 23.713C489.351 23.713 490.181 22.694 490.181 20.833V20.82ZM495.381 20.82C495.381 17.046 497.696 14.794 501.269 14.794C504.842 14.794 507.169 17.046 507.169 20.82C507.169 24.594 504.905 26.858 501.269 26.858C497.633 26.858 495.381 24.669 495.381 20.833V20.82ZM503.369 20.82C503.369 18.744 502.551 17.52 501.269 17.52C499.987 17.52 499.244 18.791 499.244 20.841C499.244 22.891 500.037 24.112 501.32 24.112C502.603 24.112 503.371 22.942 503.371 20.841L503.369 20.82ZM508.602 12.278C508.592 11.8968 508.696 11.5212 508.9 11.199C509.104 10.8767 509.399 10.6223 509.747 10.468C510.096 10.3137 510.483 10.2664 510.859 10.3322C511.234 10.3981 511.582 10.574 511.857 10.8377C512.133 11.1014 512.324 11.441 512.406 11.8134C512.488 12.1858 512.458 12.5742 512.319 12.9294C512.18 13.2846 511.939 13.5905 511.626 13.8083C511.313 14.0262 510.942 14.1462 510.561 14.153C510.308 14.1704 510.055 14.1354 509.816 14.0501C509.578 13.9648 509.36 13.8312 509.175 13.6576C508.991 13.4839 508.845 13.2741 508.745 13.0411C508.646 12.8082 508.596 12.5573 508.598 12.304L508.602 12.278ZM508.602 15.046H512.376V26.594H508.599L508.602 15.046ZM526.076 20.82C526.076 24.594 524.403 26.745 521.535 26.745C520.8 26.7918 520.068 26.6118 519.438 26.2293C518.808 25.8468 518.311 25.2802 518.013 24.606H517.938V30.293H514.159V15.02H517.933V17.083H518.008C518.292 16.397 518.78 15.8151 519.406 15.4166C520.032 15.0181 520.766 14.8223 521.508 14.856C524.401 14.906 526.125 17.07 526.125 20.844L526.076 20.82ZM522.302 20.82C522.302 18.983 521.459 17.813 520.138 17.813C518.817 17.813 517.974 18.996 517.962 20.82C517.95 22.644 518.817 23.814 520.138 23.814C521.459 23.814 522.302 22.669 522.302 20.845V20.82ZM532.555 14.782C535.687 14.782 537.587 16.266 537.675 18.644H534.241C534.241 17.826 533.562 17.311 532.518 17.311C531.474 17.311 531.008 17.711 531.008 18.305C531.008 18.899 531.423 19.085 532.266 19.261L534.681 19.752C536.981 20.243 537.964 21.174 537.964 22.922C537.964 25.312 535.788 26.847 532.58 26.847C529.372 26.847 527.271 25.312 527.108 22.96H530.744C530.857 23.815 531.537 24.319 532.644 24.319C533.751 24.319 534.254 23.954 534.254 23.35C534.254 22.746 533.902 22.62 532.996 22.432L530.82 21.967C528.568 21.502 527.386 20.306 527.386 18.545C527.411 16.281 529.437 14.809 532.556 14.809L532.555 14.782ZM550.555 26.57H546.919V24.418H546.843C546.643 25.1397 546.202 25.7713 545.593 26.2078C544.984 26.6444 544.245 26.8597 543.497 26.818C542.924 26.8506 542.35 26.7598 541.815 26.5517C541.279 26.3435 540.795 26.0229 540.394 25.6115C539.994 25.2 539.686 24.7074 539.492 24.1668C539.298 23.6263 539.222 23.0504 539.27 22.478V15.018H543.044V21.61C543.044 22.981 543.744 23.71 544.918 23.71C545.192 23.7105 545.464 23.6524 545.714 23.5395C545.963 23.4267 546.186 23.2617 546.368 23.0557C546.549 22.8496 546.683 22.6073 546.763 22.3448C546.843 22.0824 546.866 21.806 546.83 21.534V15.02H550.604L550.555 26.57ZM552.381 15.02H556.029V17.247H556.104C556.304 16.5343 556.735 15.9081 557.329 15.4663C557.923 15.0246 558.647 14.7924 559.387 14.806C560.14 14.7456 560.888 14.9709 561.483 15.4371C562.077 15.9033 562.474 16.5763 562.595 17.322H562.67C562.898 16.5685 563.371 15.9123 564.013 15.4568C564.656 15.0013 565.431 14.7724 566.218 14.806C566.731 14.7887 567.242 14.8795 567.718 15.0727C568.194 15.2658 568.624 15.557 568.98 15.9272C569.336 16.2974 569.61 16.7383 569.784 17.2214C569.959 17.7045 570.029 18.2188 569.992 18.731V26.594H566.218V19.738C566.218 18.48 565.652 17.901 564.595 17.901C564.359 17.8989 564.126 17.9473 563.91 18.0431C563.695 18.139 563.503 18.2799 563.347 18.4564C563.19 18.6329 563.074 18.8409 563.005 19.0663C562.936 19.2917 562.916 19.5293 562.947 19.763V26.594H559.362V19.688C559.362 18.531 558.796 17.902 557.762 17.902C557.524 17.902 557.288 17.9526 557.071 18.0503C556.853 18.1481 556.659 18.2909 556.501 18.4692C556.343 18.6475 556.224 18.8574 556.153 19.0849C556.082 19.3124 556.06 19.5524 556.089 19.789V26.595H552.315L552.381 15.02Z" fill="#394149"/>
<path opacity="0.55" d="M453.297 12.026C452.657 10.5621 451.81 9.19776 450.781 7.97502C449.262 6.11117 447.365 4.59041 445.215 3.51293C443.065 2.43544 440.712 1.82569 438.309 1.72383C435.907 1.62198 433.51 2.03034 431.277 2.92201C429.043 3.81368 427.024 5.16842 425.353 6.89698C423.681 8.62555 422.395 10.6887 421.578 12.9505C420.762 15.2123 420.434 17.6214 420.616 20.0192C420.798 22.4169 421.486 24.7488 422.635 26.8613C423.784 28.9738 425.367 30.8189 427.281 32.275C428.508 33.2277 429.863 34.0021 431.307 34.575C433.331 35.4045 435.498 35.8318 437.685 35.833C442.199 35.823 446.526 34.0238 449.716 30.8299C452.907 27.6359 454.701 23.3075 454.706 18.793C454.709 16.4639 454.23 14.1593 453.297 12.025V12.026ZM437.672 5.19302C439.637 5.19345 441.577 5.62349 443.358 6.45302C442.924 6.64071 442.467 6.77179 441.999 6.84302C440.46 7.06609 439.035 7.78057 437.936 8.87988C436.837 9.9792 436.122 11.4044 435.899 12.943C435.801 13.8062 435.409 14.6092 434.788 15.2166C434.167 15.824 433.355 16.1985 432.49 16.277C430.951 16.5001 429.526 17.2146 428.427 18.3139C427.328 19.4132 426.613 20.8384 426.39 22.377C426.315 23.1978 425.964 23.969 425.396 24.566C424.415 22.4943 423.975 20.2082 424.115 17.9204C424.256 15.6327 424.973 13.4176 426.199 11.4814C427.426 9.54524 429.123 7.95084 431.131 6.84663C433.14 5.74242 435.395 5.16428 437.687 5.16602L437.672 5.19302ZM427.268 27.601C427.419 27.463 427.568 27.337 427.721 27.186C428.84 26.101 429.559 24.6688 429.759 23.123C429.84 22.2539 430.228 21.4421 430.853 20.833C431.455 20.2068 432.264 19.822 433.13 19.751C434.669 19.5279 436.094 18.8135 437.193 17.7141C438.292 16.6148 439.007 15.1896 439.23 13.651C439.285 12.7432 439.675 11.888 440.324 11.251C440.94 10.6375 441.757 10.2668 442.624 10.207C444.041 10.0126 445.363 9.38218 446.406 8.40302C447.592 9.38766 448.597 10.5722 449.375 11.903C449.327 11.9676 449.272 12.0266 449.211 12.079C448.611 12.7108 447.802 13.104 446.934 13.186C445.394 13.4051 443.966 14.1182 442.866 15.2183C441.766 16.3184 441.053 17.7458 440.834 19.286C440.745 20.152 440.36 20.9606 439.743 21.575C439.126 22.1893 438.316 22.5716 437.45 22.657C435.907 22.878 434.476 23.5909 433.37 24.6898C432.264 25.7888 431.542 27.2151 431.311 28.757C431.243 29.3716 431.032 29.9618 430.695 30.48C429.404 29.7136 428.248 28.7403 427.273 27.599L427.268 27.601ZM437.668 32.457C436.392 32.4585 435.121 32.2808 433.894 31.929C434.314 31.1465 434.587 30.2938 434.699 29.413C434.787 28.5491 435.171 27.742 435.785 27.1279C436.399 26.5138 437.206 26.1303 438.07 26.042C439.611 25.8219 441.04 25.1087 442.142 24.0091C443.244 22.9095 443.96 21.4827 444.184 19.942C444.272 19.0781 444.656 18.271 445.27 17.6569C445.884 17.0428 446.691 16.6593 447.555 16.571C448.715 16.4202 449.821 15.9884 450.776 15.313C451.306 17.3226 451.368 19.4267 450.958 21.4641C450.549 23.5015 449.678 25.418 448.413 27.0668C447.148 28.7156 445.522 30.0529 443.66 30.9761C441.799 31.8994 439.75 32.384 437.672 32.393L437.668 32.457Z" fill="#394149"/>
</g>
</svg>
