<svg width="117" height="26" viewBox="0 0 117 26" fill="none" xmlns="http://www.w3.org/2000/svg">
<path d="M0.556818 25H4.06818V14.8523H13.9545V11.8409H4.06818V4.75H14.9886V1.72727H0.556818V25ZM25.1051 25.3523C30.0256 25.3523 33.2415 21.75 33.2415 16.3523C33.2415 10.9205 30.0256 7.31818 25.1051 7.31818C20.1847 7.31818 16.9688 10.9205 16.9688 16.3523C16.9688 21.75 20.1847 25.3523 25.1051 25.3523ZM25.1165 22.5C21.9006 22.5 20.4006 19.6932 20.4006 16.3409C20.4006 13 21.9006 10.1591 25.1165 10.1591C28.3097 10.1591 29.8097 13 29.8097 16.3409C29.8097 19.6932 28.3097 22.5 25.1165 22.5ZM44.3864 25.3523C49.3068 25.3523 52.5227 21.75 52.5227 16.3523C52.5227 10.9205 49.3068 7.31818 44.3864 7.31818C39.4659 7.31818 36.25 10.9205 36.25 16.3523C36.25 21.75 39.4659 25.3523 44.3864 25.3523ZM44.3977 22.5C41.1818 22.5 39.6818 19.6932 39.6818 16.3409C39.6818 13 41.1818 10.1591 44.3977 10.1591C47.5909 10.1591 49.0909 13 49.0909 16.3409C49.0909 19.6932 47.5909 22.5 44.3977 22.5ZM62.8494 25.3409C66.0312 25.3409 67.2812 23.3977 67.8949 22.2841H68.179V25H71.4972V1.72727H68.0994V10.375H67.8949C67.2812 9.29545 66.1222 7.31818 62.8722 7.31818C58.6562 7.31818 55.554 10.6477 55.554 16.3068C55.554 21.9545 58.6108 25.3409 62.8494 25.3409ZM63.5994 22.4432C60.5653 22.4432 58.9858 19.7727 58.9858 16.2727C58.9858 12.8068 60.5312 10.2045 63.5994 10.2045C66.5653 10.2045 68.1562 12.625 68.1562 16.2727C68.1562 19.9432 66.5312 22.4432 63.5994 22.4432ZM76.3466 25H79.7443V7.54545H76.3466V25ZM78.0625 4.85227C79.233 4.85227 80.2102 3.94318 80.2102 2.82954C80.2102 1.71591 79.233 0.795454 78.0625 0.795454C76.8807 0.795454 75.9148 1.71591 75.9148 2.82954C75.9148 3.94318 76.8807 4.85227 78.0625 4.85227ZM91.8381 25.3523C95.6449 25.3523 98.3381 23.4773 99.1108 20.6364L95.8949 20.0568C95.2812 21.7045 93.804 22.5455 91.8722 22.5455C88.9631 22.5455 87.0085 20.6591 86.9176 17.2955H99.3267V16.0909C99.3267 9.78409 95.554 7.31818 91.5994 7.31818C86.7358 7.31818 83.5312 11.0227 83.5312 16.3864C83.5312 21.8068 86.6903 25.3523 91.8381 25.3523ZM86.929 14.75C87.0653 12.2727 88.8608 10.125 91.6222 10.125C94.2585 10.125 95.9858 12.0795 95.9972 14.75H86.929ZM116.176 11.8068C115.472 9.09091 113.347 7.31818 109.574 7.31818C105.631 7.31818 102.835 9.39773 102.835 12.4886C102.835 14.9659 104.335 16.6136 107.608 17.3409L110.562 17.9886C112.244 18.3636 113.028 19.1136 113.028 20.2045C113.028 21.5568 111.585 22.6136 109.358 22.6136C107.324 22.6136 106.017 21.7386 105.608 20.0227L102.324 20.5227C102.892 23.6136 105.46 25.3523 109.381 25.3523C113.597 25.3523 116.517 23.1136 116.517 19.9545C116.517 17.4886 114.949 15.9659 111.744 15.2273L108.972 14.5909C107.051 14.1364 106.222 13.4886 106.233 12.3068C106.222 10.9659 107.676 10.0114 109.608 10.0114C111.722 10.0114 112.699 11.1818 113.097 12.3523L116.176 11.8068Z" fill="#06C167"/>
</svg>
